<svg xmlns="http://www.w3.org/2000/svg" version="1.1" xmlns:xlink="http://www.w3.org/1999/xlink" xmlns:svgjs="http://svgjs.dev/svgjs" viewBox="0 0 800 800"><g fill="hsl(305, 77%, 40%)"><path d="M185 716H235C263 716 285 738 285 766H235C207 766 185 744 185 716Z " transform="matrix(-0.38055018478839076,-0.13850893990747715,0.13850893990747715,-0.38055018478839076,221.79416895383127,1055.5372878064547)" opacity="0.62"></path><path d="M712 642H762C790 642 812 664 812 692H762C734 692 712 670 712 642Z " transform="matrix(-0.37130075312358324,-0.1891871831329134,0.1891871831329134,-0.37130075312358324,918.7433227305172,1058.81823588071)" opacity="0.64"></path><path d="M641 198H691C719 198 741 220 741 248H691C663 248 641 226 641 198Z " transform="matrix(-0.34789334601473637,-0.2527593110897902,0.2527593110897902,-0.34789334601473637,875.0289757231596,475.2369001243312)" opacity="0.66"></path><path d="M0 366H50C78 366 100 388 100 416H50C22 416 0 394 0 366Z " transform="matrix(-0.10128751207224253,0.25069538954525183,-0.25069538954525183,-0.10128751207224253,153.08627291580558,418.06864774298424)" opacity="0.41"></path><path d="M94 102H144C172 102 194 124 194 152H144C116 152 94 130 94 102Z " transform="matrix(-0.3829973971062071,-0.053826773878149665,0.053826773878149665,-0.3829973971062071,192.31562490076882,183.39172487094186)" opacity="0.59"></path><path d="M137 19H187C215 19 237 41 237 69H187C159 69 137 47 137 19Z " transform="matrix(-0.17966743298969162,-0.4446925013798387,0.4446925013798387,-0.17966743298969162,201.03133990835943,135.06286480957627)" opacity="0.74"></path><path d="M488 395H538C566 395 588 417 588 445H538C510 445 488 423 488 395Z " transform="matrix(-0.24557568610609898,-0.3930032499685367,0.3930032499685367,-0.24557568610609898,505.05835413829584,734.5775366476344)" opacity="0.71"></path><path d="M693 24H743C771 24 793 46 793 74H743C715 74 693 52 693 24Z " transform="matrix(-0.38403163507586013,-0.11741025349342614,0.11741025349342614,-0.38403163507586013,1022.5824024401861,155.05336846433278)" opacity="0.62"></path><path d="M621 295H671C699 295 721 317 721 345H671C643 345 621 323 621 295Z " transform="matrix(-0.337260721695231,-0.27310834745262313,0.27310834745262313,-0.337260721695231,809.9072730726606,611.179132083184)" opacity="0.67"></path><path d="M437 642H487C515 642 537 664 537 692H487C459 692 437 670 437 642Z " transform="matrix(-0.22727752080794775,-0.4100195012372327,0.4100195012372327,-0.22727752080794775,324.20114530823633,1018.2736034814336)" opacity="0.72"></path><path d="M9 26H59C87 26 109 48 109 76H59C31 76 9 54 9 26Z " transform="matrix(-0.375,4.592425496802574e-17,-4.592425496802574e-17,-0.375,81.125,70.125)" opacity="0.57"></path><path d="M192 243H242C270 243 292 265 292 293H242C214 293 192 271 192 243Z " transform="matrix(-0.38055018478839076,-0.13850893990747715,0.13850893990747715,-0.38055018478839076,296.9727488235867,403.5066129808982)" opacity="0.62"></path><path d="M697 551H747C775 551 797 573 797 601H747C719 601 697 579 697 551Z " transform="matrix(-0.36693716698301726,-0.20339659297312251,0.20339659297312251,-0.36693716698301726,903.9456261837953,939.2930631331405)" opacity="0.64"></path><path d="M383 549H433C461 549 483 571 483 599H433C405 599 383 577 383 549Z " transform="matrix(-0.2336338104883541,-0.4046656301317473,0.4046656301317473,-0.2336338104883541,301.8853682458344,883.3260250673618)" opacity="0.72"></path><path d="M629 644H679C707 644 729 666 729 694H679C651 694 629 672 629 644Z " transform="matrix(-0.337260721695231,-0.27310834745262313,0.27310834745262313,-0.337260721695231,725.290545585257,1080.0679907344406)" opacity="0.67"></path><path d="M521 308H571C599 308 621 330 621 358H571C543 358 521 336 521 308Z " transform="matrix(-0.26888470609520737,-0.3700880481606485,0.3700880481606485,-0.26888470609520737,601.2938471428674,633.8588826294344)" opacity="0.70"></path><path d="M-1 596H49C77 596 99 618 99 646H49C21 646 -1 624 -1 596Z " transform="matrix(-0.10128751207224253,0.25069538954525183,-0.25069538954525183,-0.10128751207224253,209.64492499914127,671.6154709091453)" opacity="0.41"></path><path d="M200 466H250C278 466 300 488 300 516H250C222 516 200 494 200 466Z " transform="matrix(-0.38055018478839076,-0.13850893990747715,0.13850893990747715,-0.38055018478839076,277.12965670252646,712.4773757079691)" opacity="0.62"></path><path d="M280 309H330C358 309 380 331 380 359H330C302 359 280 337 280 309Z " transform="matrix(-0.313553144994881,-0.3135531449948809,0.3135531449948809,-0.313553144994881,328.7457874200205,542.199288276601)" opacity="0.68"></path><path d="M285 729H335C363 729 385 751 385 779H335C307 779 285 757 285 729Z " transform="matrix(-0.29470383735743144,-0.3390179839827876,0.3390179839827876,-0.29470383735743144,178.10622559171773,1089.7777180017372)" opacity="0.69"></path><path d="M626 473H676C704 473 726 495 726 523H676C648 523 626 501 626 473Z " transform="matrix(-0.337260721695231,-0.27310834745262313,0.27310834745262313,-0.337260721695231,767.9802908345698,850.5770822821983)" opacity="0.67"></path><path d="M365 23H415C443 23 465 45 465 73H415C387 73 365 51 365 23Z " transform="matrix(0.11026841831823615,-0.5187721209445414,0.5187721209445414,0.11026841831823615,344.337544592594,257.9975461127093)" opacity="0.82"></path><path d="M504 121H554C582 121 604 143 604 171H554C526 171 504 149 504 121Z " transform="matrix(-0.22687381914154484,-0.40929120415215925,0.40929120415215925,-0.22687381914154484,619.9315799982006,405.8709046949617)" opacity="0.72"></path><path d="M464 29H514C542 29 564 51 564 79H514C486 79 464 57 464 29Z " transform="matrix(-0.0781353651556034,-0.49332728010087806,0.49332728010087806,-0.0781353651556034,527.5219045645327,311.78953169025385)" opacity="0.77"></path><path d="M697 732H747C775 732 797 754 797 782H747C719 782 697 760 697 732Z " transform="matrix(-0.36693716698301726,-0.20339659297312251,0.20339659297312251,-0.36693716698301726,867.1308428556603,1186.7086903570666)" opacity="0.64"></path><path d="M572 19H622C650 19 672 41 672 69H622C594 69 572 47 572 19Z " transform="matrix(-0.3004311014488176,-0.3336625411129754,0.3336625411129754,-0.3004311014488176,794.1869932921936,264.75706903601866)" opacity="0.69"></path><path d="M709 131H759C787 131 809 153 809 181H759C731 181 709 159 709 131Z " transform="matrix(-0.3725671970433751,-0.1817131634286925,0.1817131634286925,-0.3725671970433751,1013.4312490610456,352.0407737811442)" opacity="0.64"></path><path d="M93 524H143C171 524 193 546 193 574H143C115 574 93 552 93 524Z " transform="matrix(-0.3194656966916742,0.12263139138746632,-0.12263139138746632,-0.3194656966916742,256.0082284986284,706.8503785153214)" opacity="0.52"></path><path d="M594 388H644C672 388 694 410 694 438H644C616 438 594 416 594 388Z " transform="matrix(-0.318052798817389,-0.30714001761392523,0.30714001761392523,-0.318052798817389,721.9771751638474,742.1539772549495)" opacity="0.68"></path><path d="M97 418H147C175 418 197 440 197 468H147C119 468 97 446 97 418Z " transform="matrix(-0.3194656966916742,0.12263139138746632,-0.12263139138746632,-0.3194656966916742,248.28716379832372,566.496489100454)" opacity="0.52"></path><path d="M-4 714H46C74 714 96 736 96 764H46C18 764 -4 742 -4 714Z " transform="matrix(-0.10128751207224253,0.25069538954525183,-0.25069538954525183,-0.10128751207224253,235.92311842926426,802.3194835023056)" opacity="0.41"></path><path d="M289 197H339C367 197 389 219 389 247H339C311 247 289 225 289 197Z " transform="matrix(-0.29470383735743144,-0.3390179839827876,0.3390179839827876,-0.29470383735743144,363.64260841999044,402.3513484635148)" opacity="0.69"></path><path d="M248 630H298C326 630 348 652 348 680H298C270 680 248 658 248 630Z " transform="matrix(-0.34777802156826193,-0.25267552297490786,0.25267552297490786,-0.34777802156826193,236.13538287877742,958.0919099737341)" opacity="0.66"></path><path d="M712 253H762C790 253 812 275 812 303H762C734 303 712 281 712 253Z " transform="matrix(-0.37130075312358324,-0.1891871831329134,0.1891871831329134,-0.37130075312358324,992.3371369692205,525.3822429156362)" opacity="0.64"></path><path d="M339 634H389C417 634 439 656 439 684H389C361 684 339 662 339 634Z " transform="matrix(-0.25175451954603584,-0.38766796413091426,0.38766796413091426,-0.25175451954603584,231.45931974113543,975.7090664277632)" opacity="0.71"></path><path d="M589 558H639C667 558 689 580 689 608H639C611 608 589 586 589 558Z " transform="matrix(-0.318052798817389,-0.30714001761392523,0.30714001761392523,-0.318052798817389,663.173108175393,964.687252965836)" opacity="0.68"></path><path d="M-2 480H48C76 480 98 502 98 530H48C20 530 -2 508 -2 480Z " transform="matrix(-0.10128751207224253,0.25069538954525183,-0.25069538954525183,-0.10128751207224253,179.4629722998198,544.1168148983103)" opacity="0.41"></path><path d="M194 362H244C272 362 294 384 294 412H244C216 412 194 390 194 362Z " transform="matrix(-0.38055018478839076,-0.13850893990747715,0.13850893990747715,-0.38055018478839076,283.2512853441737,568.0691028505316)" opacity="0.62"></path><path d="M402 347H452C480 347 502 369 502 397H452C424 397 402 375 402 347Z " transform="matrix(-0.2203691183719757,-0.41445403306721335,0.41445403306721335,-0.2203691183719757,397.42994120312966,641.3105349807554)" opacity="0.72"></path></g><g fill="none" stroke-width="3" stroke="hsl(305, 77%, 40%)"><path d="M456 237H506C534 237 556 259 556 287H506C478 287 456 265 456 237Z " transform="matrix(-0.2266758935082616,-0.4089341368577239,0.4089341368577239,-0.2266758935082616,513.5572582584567,528.3097573491727)" opacity="0.72"></path><path d="M700 360H750C778 360 800 382 800 410H750C722 410 700 388 700 360Z " transform="matrix(-0.37130075312358324,-0.1891871831329134,0.1891871831329134,-0.37130075312358324,955.6384993365157,669.8411773022647)" opacity="0.64"></path><path d="M98 635H148C176 635 198 657 198 685H148C120 685 98 663 98 635Z " transform="matrix(-0.3194656966916742,0.12263139138746632,-0.12263139138746632,-0.3194656966916742,276.2176414260955,852.69791389116)" opacity="0.52"></path><path d="M91 731H141C169 731 191 753 191 781H141C113 781 91 759 91 731Z " transform="matrix(-0.3194656966916742,0.12263139138746632,-0.12263139138746632,-0.3194656966916742,278.7539951224506,980.2250405132728)" opacity="0.52"></path><path d="M481 552H531C559 552 581 574 581 602H531C503 602 481 580 481 552Z " transform="matrix(-0.23987746392527573,-0.3992231414891126,0.3992231414891126,-0.23987746392527573,428.0231807051034,927.3967848156029)" opacity="0.72"></path><path d="M406 457H456C484 457 506 479 506 507H456C428 507 406 485 406 457Z " transform="matrix(-0.2203691183719757,-0.41445403306721335,0.41445403306721335,-0.2203691183719757,356.72147403922406,777.2089541339416)" opacity="0.72"></path><path d="M592 732H642C670 732 692 754 692 782H642C614 782 592 760 592 732Z " transform="matrix(-0.318052798817389,-0.30714001761392523,0.30714001761392523,-0.318052798817389,613.6849035070223,1194.9498600129034)" opacity="0.68"></path><path d="M98 308H148C176 308 198 330 198 358H148C120 358 98 336 98 308Z " transform="matrix(-0.3194656966916742,0.12263139138746632,-0.12263139138746632,-0.3194656966916742,236.11717644239405,421.2326310729825)" opacity="0.52"></path><path d="M201 126H251C279 126 301 148 301 176H251C223 176 201 154 201 126Z " transform="matrix(-0.3372370739580125,-0.2730891978926024,0.2730891978926024,-0.3372370739580125,294.41003668167815,270.4681868387031)" opacity="0.67"></path><path d="M386 729H436C464 729 486 751 486 779H436C408 779 386 757 386 729Z " transform="matrix(-0.22722418117731968,-0.40992327399633116,0.40992327399633116,-0.22722418117731968,225.98759440007765,1104.0535800700995)" opacity="0.72"></path><path d="M551 208H601C629 208 651 230 651 258H601C573 258 551 236 551 208Z " transform="matrix(-0.295339220546285,-0.339748908729724,0.339748908729724,-0.295339220546285,699.3373758142916,506.00313253384854)" opacity="0.69"></path><path d="M250 23H300C328 23 350 45 350 73H300C272 73 250 51 250 23Z " transform="matrix(0.05457308713467539,-0.5192282403913498,0.5192282403913498,0.05457308713467539,258.70511832081263,201.14896393494053)" opacity="0.80"></path><path d="M526 475H576C604 475 626 497 626 525H576C548 525 526 503 526 475Z " transform="matrix(-0.26888470609520737,-0.3700880481606485,0.3700880481606485,-0.26888470609520737,545.8335666305152,847.6130687881373)" opacity="0.70"></path><path d="M364 258H414C442 258 464 280 464 308H414C386 308 364 286 364 258Z " transform="matrix(-0.2395555014390179,-0.3986873059291472,0.3986873059291472,-0.2395555014390179,400.34747001780477,515.850751561909)" opacity="0.71"></path><path d="M489 731H539C567 731 589 753 589 781H539C511 781 489 759 489 731Z " transform="matrix(-0.24557568610609898,-0.3930032499685367,0.3930032499685367,-0.24557568610609898,374.2548378349736,1153.4839704292522)" opacity="0.71"></path><path d="M-1 254H49C77 254 99 276 99 304H49C21 304 -1 282 -1 254Z " transform="matrix(-0.10128751207224253,0.25069538954525183,-0.25069538954525183,-0.10128751207224253,123.90710177466514,294.9751417804383)" opacity="0.41"></path><path d="M97 200H147C175 200 197 222 197 250H147C119 250 97 228 97 200Z " transform="matrix(-0.3194656966916742,0.12263139138746632,-0.12263139138746632,-0.3194656966916742,221.55352047585603,278.85296722166913)" opacity="0.52"></path><path d="M710 455H760C788 455 810 477 810 505H760C732 505 710 483 710 455Z " transform="matrix(-0.37130075312358324,-0.1891871831329134,0.1891871831329134,-0.37130075312358324,951.3787244701248,802.0066206803341)" opacity="0.64"></path><path d="M182 573H232C260 573 282 595 282 623H232C204 623 182 601 182 573Z " transform="matrix(-0.38544428026102057,-0.08898682376355639,0.08898682376355639,-0.38544428026102057,268.20895240995003,849.1406227092352)" opacity="0.61"></path><path d="M314 104H364C392 104 414 126 414 154H364C336 154 314 132 314 104Z " transform="matrix(-0.13452786594488497,-0.4691544227952859,0.4691544227952859,-0.13452786594488497,352.4472226633462,317.12630460437424)" opacity="0.75"></path><path d="M-3 140H47C75 140 97 162 97 190H47C19 190 -3 168 -3 140Z " transform="matrix(-0.1665645027158237,0.23787876254759532,-0.23787876254759532,-0.1665645027158237,94.07852744799695,181.3028411083739)" opacity="0.44"></path><path d="M534 642H584C612 642 634 664 634 692H584C556 692 534 670 534 642Z " transform="matrix(-0.2794749331224826,-0.35771160205784214,0.35771160205784214,-0.2794749331224826,508.61972237094915,1062.3133559944758)" opacity="0.70"></path><path d="M306 411H356C384 411 406 433 406 461H356C328 461 306 439 306 411Z " transform="matrix(-0.2796785007489697,-0.3579721567379497,0.3579721567379497,-0.2796785007489697,299.4896859288871,685.3779141252609)" opacity="0.70"></path><path d="M404 145H454C482 145 504 167 504 195H454C426 195 404 173 404 145Z " transform="matrix(-0.20060626285700783,-0.4302015189944123,0.4302015189944123,-0.20060626285700783,471.94098510803144,399.4145543091545)" opacity="0.73"></path><path d="M290 521H340C368 521 390 543 390 571H340C312 571 290 549 290 521Z " transform="matrix(-0.29470383735743144,-0.3390179839827876,0.3390179839827876,-0.29470383735743144,255.0954854469247,822.1744097513053)" opacity="0.69"></path><path d="M610 105H660C688 105 710 127 710 155H660C632 155 610 133 610 105Z " transform="matrix(-0.33040280924472976,-0.28721478021366825,0.28721478021366825,-0.33040280924472976,840.7279326737448,362.5141201428359)" opacity="0.67"></path></g></svg>