<svg xmlns="http://www.w3.org/2000/svg" version="1.1" xmlns:xlink="http://www.w3.org/1999/xlink" xmlns:svgjs="http://svgjs.dev/svgjs" viewBox="0 0 800 800" opacity="0.33" width="800" height="800"><g stroke-width="1.75" stroke="hsla(144, 33%, 55%, 1.00)" fill="none"><rect width="8.947368421052632" height="8.947368421052632" x="-4.473684210526316" y="-4.473684210526316" transform="rotate(45, 0, 0)"></rect><rect width="8.947368421052632" height="8.947368421052632" x="48.85964912280702" y="-4.473684210526316" transform="rotate(45, 53.333333333333336, 0)"></rect><rect width="8.947368421052632" height="8.947368421052632" x="102.19298245614036" y="-4.473684210526316" transform="rotate(45, 106.66666666666667, 0)"></rect><rect width="8.947368421052632" height="8.947368421052632" x="155.52631578947367" y="-4.473684210526316" transform="rotate(45, 160, 0)"></rect><rect width="8.947368421052632" height="8.947368421052632" x="208.859649122807" y="-4.473684210526316" transform="rotate(45, 213.33333333333334, 0)"></rect><rect width="8.947368421052632" height="8.947368421052632" x="262.1929824561404" y="-4.473684210526316" transform="rotate(45, 266.6666666666667, 0)"></rect><rect width="8.947368421052632" height="8.947368421052632" x="315.5263157894737" y="-4.473684210526316" transform="rotate(45, 320, 0)"></rect><rect width="8.947368421052632" height="8.947368421052632" x="368.859649122807" y="-4.473684210526316" transform="rotate(45, 373.3333333333333, 0)"></rect><rect width="8.947368421052632" height="8.947368421052632" x="422.1929824561403" y="-4.473684210526316" transform="rotate(45, 426.66666666666663, 0)"></rect><rect width="8.947368421052632" height="8.947368421052632" x="475.52631578947364" y="-4.473684210526316" transform="rotate(45, 479.99999999999994, 0)"></rect><rect width="8.947368421052632" height="8.947368421052632" x="528.8596491228069" y="-4.473684210526316" transform="rotate(45, 533.3333333333333, 0)"></rect><rect width="8.947368421052632" height="8.947368421052632" x="582.1929824561403" y="-4.473684210526316" transform="rotate(45, 586.6666666666666, 0)"></rect><rect width="8.947368421052632" height="8.947368421052632" x="635.5263157894736" y="-4.473684210526316" transform="rotate(45, 640, 0)"></rect><rect width="8.947368421052632" height="8.947368421052632" x="688.859649122807" y="-4.473684210526316" transform="rotate(45, 693.3333333333334, 0)"></rect><rect width="8.947368421052632" height="8.947368421052632" x="742.1929824561404" y="-4.473684210526316" transform="rotate(45, 746.6666666666667, 0)"></rect><rect width="8.947368421052632" height="8.947368421052632" x="795.5263157894738" y="-4.473684210526316" transform="rotate(45, 800.0000000000001, 0)"></rect><rect width="8.947368421052632" height="8.947368421052632" x="-4.473684210526316" y="42.58513931888545" transform="rotate(45, 0, 47.05882352941177)"></rect><rect width="8.947368421052632" height="8.947368421052632" x="48.85964912280702" y="42.58513931888545" transform="rotate(45, 53.333333333333336, 47.05882352941177)"></rect><rect width="8.947368421052632" height="8.947368421052632" x="102.19298245614036" y="42.58513931888545" fill="hsla(144, 33%, 55%, 1.00)" stroke="none" transform="rotate(45, 106.66666666666667, 47.05882352941177)"></rect><rect width="8.947368421052632" height="8.947368421052632" x="155.52631578947367" y="42.58513931888545" transform="rotate(45, 160, 47.05882352941177)"></rect><rect width="8.947368421052632" height="8.947368421052632" x="208.859649122807" y="42.58513931888545" transform="rotate(45, 213.33333333333334, 47.05882352941177)"></rect><rect width="8.947368421052632" height="8.947368421052632" x="262.1929824561404" y="42.58513931888545" fill="hsla(144, 33%, 55%, 1.00)" stroke="none" transform="rotate(45, 266.6666666666667, 47.05882352941177)"></rect><rect width="8.947368421052632" height="8.947368421052632" x="315.5263157894737" y="42.58513931888545" transform="rotate(45, 320, 47.05882352941177)"></rect><rect width="8.947368421052632" height="8.947368421052632" x="368.859649122807" y="42.58513931888545" transform="rotate(45, 373.3333333333333, 47.05882352941177)"></rect><rect width="8.947368421052632" height="8.947368421052632" x="422.1929824561403" y="42.58513931888545" transform="rotate(45, 426.66666666666663, 47.05882352941177)"></rect><rect width="8.947368421052632" height="8.947368421052632" x="475.52631578947364" y="42.58513931888545" transform="rotate(45, 479.99999999999994, 47.05882352941177)"></rect><rect width="8.947368421052632" height="8.947368421052632" x="528.8596491228069" y="42.58513931888545" transform="rotate(45, 533.3333333333333, 47.05882352941177)"></rect><rect width="8.947368421052632" height="8.947368421052632" x="582.1929824561403" y="42.58513931888545" transform="rotate(45, 586.6666666666666, 47.05882352941177)"></rect><rect width="8.947368421052632" height="8.947368421052632" x="635.5263157894736" y="42.58513931888545" transform="rotate(45, 640, 47.05882352941177)"></rect><rect width="8.947368421052632" height="8.947368421052632" x="688.859649122807" y="42.58513931888545" fill="hsla(144, 33%, 55%, 1.00)" stroke="none" transform="rotate(45, 693.3333333333334, 47.05882352941177)"></rect><rect width="8.947368421052632" height="8.947368421052632" x="742.1929824561404" y="42.58513931888545" fill="hsla(144, 33%, 55%, 1.00)" stroke="none" transform="rotate(45, 746.6666666666667, 47.05882352941177)"></rect><rect width="8.947368421052632" height="8.947368421052632" x="795.5263157894738" y="42.58513931888545" transform="rotate(45, 800.0000000000001, 47.05882352941177)"></rect><rect width="8.947368421052632" height="8.947368421052632" x="-4.473684210526316" y="89.64396284829722" transform="rotate(45, 0, 94.11764705882354)"></rect><rect width="8.947368421052632" height="8.947368421052632" x="48.85964912280702" y="89.64396284829722" transform="rotate(45, 53.333333333333336, 94.11764705882354)"></rect><rect width="8.947368421052632" height="8.947368421052632" x="102.19298245614036" y="89.64396284829722" transform="rotate(45, 106.66666666666667, 94.11764705882354)"></rect><rect width="8.947368421052632" height="8.947368421052632" x="155.52631578947367" y="89.64396284829722" fill="hsla(144, 33%, 55%, 1.00)" stroke="none" transform="rotate(45, 160, 94.11764705882354)"></rect><rect width="8.947368421052632" height="8.947368421052632" x="208.859649122807" y="89.64396284829722" fill="hsla(144, 33%, 55%, 1.00)" stroke="none" transform="rotate(45, 213.33333333333334, 94.11764705882354)"></rect><rect width="8.947368421052632" height="8.947368421052632" x="262.1929824561404" y="89.64396284829722" transform="rotate(45, 266.6666666666667, 94.11764705882354)"></rect><rect width="8.947368421052632" height="8.947368421052632" x="315.5263157894737" y="89.64396284829722" transform="rotate(45, 320, 94.11764705882354)"></rect><rect width="8.947368421052632" height="8.947368421052632" x="368.859649122807" y="89.64396284829722" transform="rotate(45, 373.3333333333333, 94.11764705882354)"></rect><rect width="8.947368421052632" height="8.947368421052632" x="422.1929824561403" y="89.64396284829722" transform="rotate(45, 426.66666666666663, 94.11764705882354)"></rect><rect width="8.947368421052632" height="8.947368421052632" x="475.52631578947364" y="89.64396284829722" transform="rotate(45, 479.99999999999994, 94.11764705882354)"></rect><rect width="8.947368421052632" height="8.947368421052632" x="528.8596491228069" y="89.64396284829722" transform="rotate(45, 533.3333333333333, 94.11764705882354)"></rect><rect width="8.947368421052632" height="8.947368421052632" x="582.1929824561403" y="89.64396284829722" fill="hsla(144, 33%, 55%, 1.00)" stroke="none" transform="rotate(45, 586.6666666666666, 94.11764705882354)"></rect><rect width="8.947368421052632" height="8.947368421052632" x="635.5263157894736" y="89.64396284829722" transform="rotate(45, 640, 94.11764705882354)"></rect><rect width="8.947368421052632" height="8.947368421052632" x="688.859649122807" y="89.64396284829722" transform="rotate(45, 693.3333333333334, 94.11764705882354)"></rect><rect width="8.947368421052632" height="8.947368421052632" x="742.1929824561404" y="89.64396284829722" fill="hsla(144, 33%, 55%, 1.00)" stroke="none" transform="rotate(45, 746.6666666666667, 94.11764705882354)"></rect><rect width="8.947368421052632" height="8.947368421052632" x="795.5263157894738" y="89.64396284829722" transform="rotate(45, 800.0000000000001, 94.11764705882354)"></rect><rect width="8.947368421052632" height="8.947368421052632" x="-4.473684210526316" y="136.70278637770897" transform="rotate(45, 0, 141.1764705882353)"></rect><rect width="8.947368421052632" height="8.947368421052632" x="48.85964912280702" y="136.70278637770897" transform="rotate(45, 53.333333333333336, 141.1764705882353)"></rect><rect width="8.947368421052632" height="8.947368421052632" x="102.19298245614036" y="136.70278637770897" transform="rotate(45, 106.66666666666667, 141.1764705882353)"></rect><rect width="8.947368421052632" height="8.947368421052632" x="155.52631578947367" y="136.70278637770897" transform="rotate(45, 160, 141.1764705882353)"></rect><rect width="8.947368421052632" height="8.947368421052632" x="208.859649122807" y="136.70278637770897" transform="rotate(45, 213.33333333333334, 141.1764705882353)"></rect><rect width="8.947368421052632" height="8.947368421052632" x="262.1929824561404" y="136.70278637770897" fill="hsla(144, 33%, 55%, 1.00)" stroke="none" transform="rotate(45, 266.6666666666667, 141.1764705882353)"></rect><rect width="8.947368421052632" height="8.947368421052632" x="315.5263157894737" y="136.70278637770897" transform="rotate(45, 320, 141.1764705882353)"></rect><rect width="8.947368421052632" height="8.947368421052632" x="368.859649122807" y="136.70278637770897" transform="rotate(45, 373.3333333333333, 141.1764705882353)"></rect><rect width="8.947368421052632" height="8.947368421052632" x="422.1929824561403" y="136.70278637770897" fill="hsla(144, 33%, 55%, 1.00)" stroke="none" transform="rotate(45, 426.66666666666663, 141.1764705882353)"></rect><rect width="8.947368421052632" height="8.947368421052632" x="475.52631578947364" y="136.70278637770897" transform="rotate(45, 479.99999999999994, 141.1764705882353)"></rect><rect width="8.947368421052632" height="8.947368421052632" x="528.8596491228069" y="136.70278637770897" transform="rotate(45, 533.3333333333333, 141.1764705882353)"></rect><rect width="8.947368421052632" height="8.947368421052632" x="582.1929824561403" y="136.70278637770897" fill="hsla(144, 33%, 55%, 1.00)" stroke="none" transform="rotate(45, 586.6666666666666, 141.1764705882353)"></rect><rect width="8.947368421052632" height="8.947368421052632" x="635.5263157894736" y="136.70278637770897" transform="rotate(45, 640, 141.1764705882353)"></rect><rect width="8.947368421052632" height="8.947368421052632" x="688.859649122807" y="136.70278637770897" transform="rotate(45, 693.3333333333334, 141.1764705882353)"></rect><rect width="8.947368421052632" height="8.947368421052632" x="742.1929824561404" y="136.70278637770897" transform="rotate(45, 746.6666666666667, 141.1764705882353)"></rect><rect width="8.947368421052632" height="8.947368421052632" x="795.5263157894738" y="136.70278637770897" transform="rotate(45, 800.0000000000001, 141.1764705882353)"></rect><rect width="8.947368421052632" height="8.947368421052632" x="-4.473684210526316" y="183.76160990712074" transform="rotate(45, 0, 188.23529411764707)"></rect><rect width="8.947368421052632" height="8.947368421052632" x="48.85964912280702" y="183.76160990712074" fill="hsla(144, 33%, 55%, 1.00)" stroke="none" transform="rotate(45, 53.333333333333336, 188.23529411764707)"></rect><rect width="8.947368421052632" height="8.947368421052632" x="102.19298245614036" y="183.76160990712074" transform="rotate(45, 106.66666666666667, 188.23529411764707)"></rect><rect width="8.947368421052632" height="8.947368421052632" x="155.52631578947367" y="183.76160990712074" transform="rotate(45, 160, 188.23529411764707)"></rect><rect width="8.947368421052632" height="8.947368421052632" x="208.859649122807" y="183.76160990712074" fill="hsla(144, 33%, 55%, 1.00)" stroke="none" transform="rotate(45, 213.33333333333334, 188.23529411764707)"></rect><rect width="8.947368421052632" height="8.947368421052632" x="262.1929824561404" y="183.76160990712074" transform="rotate(45, 266.6666666666667, 188.23529411764707)"></rect><rect width="8.947368421052632" height="8.947368421052632" x="315.5263157894737" y="183.76160990712074" transform="rotate(45, 320, 188.23529411764707)"></rect><rect width="8.947368421052632" height="8.947368421052632" x="368.859649122807" y="183.76160990712074" fill="hsla(144, 33%, 55%, 1.00)" stroke="none" transform="rotate(45, 373.3333333333333, 188.23529411764707)"></rect><rect width="8.947368421052632" height="8.947368421052632" x="422.1929824561403" y="183.76160990712074" transform="rotate(45, 426.66666666666663, 188.23529411764707)"></rect><rect width="8.947368421052632" height="8.947368421052632" x="475.52631578947364" y="183.76160990712074" fill="hsla(144, 33%, 55%, 1.00)" stroke="none" transform="rotate(45, 479.99999999999994, 188.23529411764707)"></rect><rect width="8.947368421052632" height="8.947368421052632" x="528.8596491228069" y="183.76160990712074" transform="rotate(45, 533.3333333333333, 188.23529411764707)"></rect><rect width="8.947368421052632" height="8.947368421052632" x="582.1929824561403" y="183.76160990712074" transform="rotate(45, 586.6666666666666, 188.23529411764707)"></rect><rect width="8.947368421052632" height="8.947368421052632" x="635.5263157894736" y="183.76160990712074" fill="hsla(144, 33%, 55%, 1.00)" stroke="none" transform="rotate(45, 640, 188.23529411764707)"></rect><rect width="8.947368421052632" height="8.947368421052632" x="688.859649122807" y="183.76160990712074" transform="rotate(45, 693.3333333333334, 188.23529411764707)"></rect><rect width="8.947368421052632" height="8.947368421052632" x="742.1929824561404" y="183.76160990712074" transform="rotate(45, 746.6666666666667, 188.23529411764707)"></rect><rect width="8.947368421052632" height="8.947368421052632" x="795.5263157894738" y="183.76160990712074" transform="rotate(45, 800.0000000000001, 188.23529411764707)"></rect><rect width="8.947368421052632" height="8.947368421052632" x="-4.473684210526316" y="230.8204334365325" transform="rotate(45, 0, 235.29411764705884)"></rect><rect width="8.947368421052632" height="8.947368421052632" x="48.85964912280702" y="230.8204334365325" transform="rotate(45, 53.333333333333336, 235.29411764705884)"></rect><rect width="8.947368421052632" height="8.947368421052632" x="102.19298245614036" y="230.8204334365325" transform="rotate(45, 106.66666666666667, 235.29411764705884)"></rect><rect width="8.947368421052632" height="8.947368421052632" x="155.52631578947367" y="230.8204334365325" fill="hsla(144, 33%, 55%, 1.00)" stroke="none" transform="rotate(45, 160, 235.29411764705884)"></rect><rect width="8.947368421052632" height="8.947368421052632" x="208.859649122807" y="230.8204334365325" transform="rotate(45, 213.33333333333334, 235.29411764705884)"></rect><rect width="8.947368421052632" height="8.947368421052632" x="262.1929824561404" y="230.8204334365325" fill="hsla(144, 33%, 55%, 1.00)" stroke="none" transform="rotate(45, 266.6666666666667, 235.29411764705884)"></rect><rect width="8.947368421052632" height="8.947368421052632" x="315.5263157894737" y="230.8204334365325" fill="hsla(144, 33%, 55%, 1.00)" stroke="none" transform="rotate(45, 320, 235.29411764705884)"></rect><rect width="8.947368421052632" height="8.947368421052632" x="368.859649122807" y="230.8204334365325" fill="hsla(144, 33%, 55%, 1.00)" stroke="none" transform="rotate(45, 373.3333333333333, 235.29411764705884)"></rect><rect width="8.947368421052632" height="8.947368421052632" x="422.1929824561403" y="230.8204334365325" transform="rotate(45, 426.66666666666663, 235.29411764705884)"></rect><rect width="8.947368421052632" height="8.947368421052632" x="475.52631578947364" y="230.8204334365325" transform="rotate(45, 479.99999999999994, 235.29411764705884)"></rect><rect width="8.947368421052632" height="8.947368421052632" x="528.8596491228069" y="230.8204334365325" fill="hsla(144, 33%, 55%, 1.00)" stroke="none" transform="rotate(45, 533.3333333333333, 235.29411764705884)"></rect><rect width="8.947368421052632" height="8.947368421052632" x="582.1929824561403" y="230.8204334365325" transform="rotate(45, 586.6666666666666, 235.29411764705884)"></rect><rect width="8.947368421052632" height="8.947368421052632" x="635.5263157894736" y="230.8204334365325" transform="rotate(45, 640, 235.29411764705884)"></rect><rect width="8.947368421052632" height="8.947368421052632" x="688.859649122807" y="230.8204334365325" fill="hsla(144, 33%, 55%, 1.00)" stroke="none" transform="rotate(45, 693.3333333333334, 235.29411764705884)"></rect><rect width="8.947368421052632" height="8.947368421052632" x="742.1929824561404" y="230.8204334365325" fill="hsla(144, 33%, 55%, 1.00)" stroke="none" transform="rotate(45, 746.6666666666667, 235.29411764705884)"></rect><rect width="8.947368421052632" height="8.947368421052632" x="795.5263157894738" y="230.8204334365325" transform="rotate(45, 800.0000000000001, 235.29411764705884)"></rect><rect width="8.947368421052632" height="8.947368421052632" x="-4.473684210526316" y="277.8792569659443" transform="rotate(45, 0, 282.3529411764706)"></rect><rect width="8.947368421052632" height="8.947368421052632" x="48.85964912280702" y="277.8792569659443" transform="rotate(45, 53.333333333333336, 282.3529411764706)"></rect><rect width="8.947368421052632" height="8.947368421052632" x="102.19298245614036" y="277.8792569659443" fill="hsla(144, 33%, 55%, 1.00)" stroke="none" transform="rotate(45, 106.66666666666667, 282.3529411764706)"></rect><rect width="8.947368421052632" height="8.947368421052632" x="155.52631578947367" y="277.8792569659443" fill="hsla(144, 33%, 55%, 1.00)" stroke="none" transform="rotate(45, 160, 282.3529411764706)"></rect><rect width="8.947368421052632" height="8.947368421052632" x="208.859649122807" y="277.8792569659443" transform="rotate(45, 213.33333333333334, 282.3529411764706)"></rect><rect width="8.947368421052632" height="8.947368421052632" x="262.1929824561404" y="277.8792569659443" fill="hsla(144, 33%, 55%, 1.00)" stroke="none" transform="rotate(45, 266.6666666666667, 282.3529411764706)"></rect><rect width="8.947368421052632" height="8.947368421052632" x="315.5263157894737" y="277.8792569659443" transform="rotate(45, 320, 282.3529411764706)"></rect><rect width="8.947368421052632" height="8.947368421052632" x="368.859649122807" y="277.8792569659443" transform="rotate(45, 373.3333333333333, 282.3529411764706)"></rect><rect width="8.947368421052632" height="8.947368421052632" x="422.1929824561403" y="277.8792569659443" transform="rotate(45, 426.66666666666663, 282.3529411764706)"></rect><rect width="8.947368421052632" height="8.947368421052632" x="475.52631578947364" y="277.8792569659443" transform="rotate(45, 479.99999999999994, 282.3529411764706)"></rect><rect width="8.947368421052632" height="8.947368421052632" x="528.8596491228069" y="277.8792569659443" transform="rotate(45, 533.3333333333333, 282.3529411764706)"></rect><rect width="8.947368421052632" height="8.947368421052632" x="582.1929824561403" y="277.8792569659443" transform="rotate(45, 586.6666666666666, 282.3529411764706)"></rect><rect width="8.947368421052632" height="8.947368421052632" x="635.5263157894736" y="277.8792569659443" transform="rotate(45, 640, 282.3529411764706)"></rect><rect width="8.947368421052632" height="8.947368421052632" x="688.859649122807" y="277.8792569659443" transform="rotate(45, 693.3333333333334, 282.3529411764706)"></rect><rect width="8.947368421052632" height="8.947368421052632" x="742.1929824561404" y="277.8792569659443" transform="rotate(45, 746.6666666666667, 282.3529411764706)"></rect><rect width="8.947368421052632" height="8.947368421052632" x="795.5263157894738" y="277.8792569659443" transform="rotate(45, 800.0000000000001, 282.3529411764706)"></rect><rect width="8.947368421052632" height="8.947368421052632" x="-4.473684210526316" y="324.9380804953561" transform="rotate(45, 0, 329.4117647058824)"></rect><rect width="8.947368421052632" height="8.947368421052632" x="48.85964912280702" y="324.9380804953561" transform="rotate(45, 53.333333333333336, 329.4117647058824)"></rect><rect width="8.947368421052632" height="8.947368421052632" x="102.19298245614036" y="324.9380804953561" transform="rotate(45, 106.66666666666667, 329.4117647058824)"></rect><rect width="8.947368421052632" height="8.947368421052632" x="155.52631578947367" y="324.9380804953561" fill="hsla(144, 33%, 55%, 1.00)" stroke="none" transform="rotate(45, 160, 329.4117647058824)"></rect><rect width="8.947368421052632" height="8.947368421052632" x="208.859649122807" y="324.9380804953561" fill="hsla(144, 33%, 55%, 1.00)" stroke="none" transform="rotate(45, 213.33333333333334, 329.4117647058824)"></rect><rect width="8.947368421052632" height="8.947368421052632" x="262.1929824561404" y="324.9380804953561" transform="rotate(45, 266.6666666666667, 329.4117647058824)"></rect><rect width="8.947368421052632" height="8.947368421052632" x="315.5263157894737" y="324.9380804953561" transform="rotate(45, 320, 329.4117647058824)"></rect><rect width="8.947368421052632" height="8.947368421052632" x="368.859649122807" y="324.9380804953561" transform="rotate(45, 373.3333333333333, 329.4117647058824)"></rect><rect width="8.947368421052632" height="8.947368421052632" x="422.1929824561403" y="324.9380804953561" fill="hsla(144, 33%, 55%, 1.00)" stroke="none" transform="rotate(45, 426.66666666666663, 329.4117647058824)"></rect><rect width="8.947368421052632" height="8.947368421052632" x="475.52631578947364" y="324.9380804953561" transform="rotate(45, 479.99999999999994, 329.4117647058824)"></rect><rect width="8.947368421052632" height="8.947368421052632" x="528.8596491228069" y="324.9380804953561" transform="rotate(45, 533.3333333333333, 329.4117647058824)"></rect><rect width="8.947368421052632" height="8.947368421052632" x="582.1929824561403" y="324.9380804953561" transform="rotate(45, 586.6666666666666, 329.4117647058824)"></rect><rect width="8.947368421052632" height="8.947368421052632" x="635.5263157894736" y="324.9380804953561" transform="rotate(45, 640, 329.4117647058824)"></rect><rect width="8.947368421052632" height="8.947368421052632" x="688.859649122807" y="324.9380804953561" fill="hsla(144, 33%, 55%, 1.00)" stroke="none" transform="rotate(45, 693.3333333333334, 329.4117647058824)"></rect><rect width="8.947368421052632" height="8.947368421052632" x="742.1929824561404" y="324.9380804953561" transform="rotate(45, 746.6666666666667, 329.4117647058824)"></rect><rect width="8.947368421052632" height="8.947368421052632" x="795.5263157894738" y="324.9380804953561" transform="rotate(45, 800.0000000000001, 329.4117647058824)"></rect><rect width="8.947368421052632" height="8.947368421052632" x="-4.473684210526316" y="371.99690402476784" transform="rotate(45, 0, 376.47058823529414)"></rect><rect width="8.947368421052632" height="8.947368421052632" x="48.85964912280702" y="371.99690402476784" fill="hsla(144, 33%, 55%, 1.00)" stroke="none" transform="rotate(45, 53.333333333333336, 376.47058823529414)"></rect><rect width="8.947368421052632" height="8.947368421052632" x="102.19298245614036" y="371.99690402476784" transform="rotate(45, 106.66666666666667, 376.47058823529414)"></rect><rect width="8.947368421052632" height="8.947368421052632" x="155.52631578947367" y="371.99690402476784" fill="hsla(144, 33%, 55%, 1.00)" stroke="none" transform="rotate(45, 160, 376.47058823529414)"></rect><rect width="8.947368421052632" height="8.947368421052632" x="208.859649122807" y="371.99690402476784" transform="rotate(45, 213.33333333333334, 376.47058823529414)"></rect><rect width="8.947368421052632" height="8.947368421052632" x="262.1929824561404" y="371.99690402476784" transform="rotate(45, 266.6666666666667, 376.47058823529414)"></rect><rect width="8.947368421052632" height="8.947368421052632" x="315.5263157894737" y="371.99690402476784" transform="rotate(45, 320, 376.47058823529414)"></rect><rect width="8.947368421052632" height="8.947368421052632" x="368.859649122807" y="371.99690402476784" transform="rotate(45, 373.3333333333333, 376.47058823529414)"></rect><rect width="8.947368421052632" height="8.947368421052632" x="422.1929824561403" y="371.99690402476784" transform="rotate(45, 426.66666666666663, 376.47058823529414)"></rect><rect width="8.947368421052632" height="8.947368421052632" x="475.52631578947364" y="371.99690402476784" transform="rotate(45, 479.99999999999994, 376.47058823529414)"></rect><rect width="8.947368421052632" height="8.947368421052632" x="528.8596491228069" y="371.99690402476784" fill="hsla(144, 33%, 55%, 1.00)" stroke="none" transform="rotate(45, 533.3333333333333, 376.47058823529414)"></rect><rect width="8.947368421052632" height="8.947368421052632" x="582.1929824561403" y="371.99690402476784" fill="hsla(144, 33%, 55%, 1.00)" stroke="none" transform="rotate(45, 586.6666666666666, 376.47058823529414)"></rect><rect width="8.947368421052632" height="8.947368421052632" x="635.5263157894736" y="371.99690402476784" fill="hsla(144, 33%, 55%, 1.00)" stroke="none" transform="rotate(45, 640, 376.47058823529414)"></rect><rect width="8.947368421052632" height="8.947368421052632" x="688.859649122807" y="371.99690402476784" transform="rotate(45, 693.3333333333334, 376.47058823529414)"></rect><rect width="8.947368421052632" height="8.947368421052632" x="742.1929824561404" y="371.99690402476784" transform="rotate(45, 746.6666666666667, 376.47058823529414)"></rect><rect width="8.947368421052632" height="8.947368421052632" x="795.5263157894738" y="371.99690402476784" transform="rotate(45, 800.0000000000001, 376.47058823529414)"></rect><rect width="8.947368421052632" height="8.947368421052632" x="-4.473684210526316" y="419.0557275541796" transform="rotate(45, 0, 423.5294117647059)"></rect><rect width="8.947368421052632" height="8.947368421052632" x="48.85964912280702" y="419.0557275541796" transform="rotate(45, 53.333333333333336, 423.5294117647059)"></rect><rect width="8.947368421052632" height="8.947368421052632" x="102.19298245614036" y="419.0557275541796" transform="rotate(45, 106.66666666666667, 423.5294117647059)"></rect><rect width="8.947368421052632" height="8.947368421052632" x="155.52631578947367" y="419.0557275541796" transform="rotate(45, 160, 423.5294117647059)"></rect><rect width="8.947368421052632" height="8.947368421052632" x="208.859649122807" y="419.0557275541796" transform="rotate(45, 213.33333333333334, 423.5294117647059)"></rect><rect width="8.947368421052632" height="8.947368421052632" x="262.1929824561404" y="419.0557275541796" transform="rotate(45, 266.6666666666667, 423.5294117647059)"></rect><rect width="8.947368421052632" height="8.947368421052632" x="315.5263157894737" y="419.0557275541796" transform="rotate(45, 320, 423.5294117647059)"></rect><rect width="8.947368421052632" height="8.947368421052632" x="368.859649122807" y="419.0557275541796" transform="rotate(45, 373.3333333333333, 423.5294117647059)"></rect><rect width="8.947368421052632" height="8.947368421052632" x="422.1929824561403" y="419.0557275541796" transform="rotate(45, 426.66666666666663, 423.5294117647059)"></rect><rect width="8.947368421052632" height="8.947368421052632" x="475.52631578947364" y="419.0557275541796" transform="rotate(45, 479.99999999999994, 423.5294117647059)"></rect><rect width="8.947368421052632" height="8.947368421052632" x="528.8596491228069" y="419.0557275541796" transform="rotate(45, 533.3333333333333, 423.5294117647059)"></rect><rect width="8.947368421052632" height="8.947368421052632" x="582.1929824561403" y="419.0557275541796" transform="rotate(45, 586.6666666666666, 423.5294117647059)"></rect><rect width="8.947368421052632" height="8.947368421052632" x="635.5263157894736" y="419.0557275541796" transform="rotate(45, 640, 423.5294117647059)"></rect><rect width="8.947368421052632" height="8.947368421052632" x="688.859649122807" y="419.0557275541796" transform="rotate(45, 693.3333333333334, 423.5294117647059)"></rect><rect width="8.947368421052632" height="8.947368421052632" x="742.1929824561404" y="419.0557275541796" transform="rotate(45, 746.6666666666667, 423.5294117647059)"></rect><rect width="8.947368421052632" height="8.947368421052632" x="795.5263157894738" y="419.0557275541796" transform="rotate(45, 800.0000000000001, 423.5294117647059)"></rect><rect width="8.947368421052632" height="8.947368421052632" x="-4.473684210526316" y="466.1145510835914" transform="rotate(45, 0, 470.5882352941177)"></rect><rect width="8.947368421052632" height="8.947368421052632" x="48.85964912280702" y="466.1145510835914" transform="rotate(45, 53.333333333333336, 470.5882352941177)"></rect><rect width="8.947368421052632" height="8.947368421052632" x="102.19298245614036" y="466.1145510835914" transform="rotate(45, 106.66666666666667, 470.5882352941177)"></rect><rect width="8.947368421052632" height="8.947368421052632" x="155.52631578947367" y="466.1145510835914" fill="hsla(144, 33%, 55%, 1.00)" stroke="none" transform="rotate(45, 160, 470.5882352941177)"></rect><rect width="8.947368421052632" height="8.947368421052632" x="208.859649122807" y="466.1145510835914" transform="rotate(45, 213.33333333333334, 470.5882352941177)"></rect><rect width="8.947368421052632" height="8.947368421052632" x="262.1929824561404" y="466.1145510835914" fill="hsla(144, 33%, 55%, 1.00)" stroke="none" transform="rotate(45, 266.6666666666667, 470.5882352941177)"></rect><rect width="8.947368421052632" height="8.947368421052632" x="315.5263157894737" y="466.1145510835914" transform="rotate(45, 320, 470.5882352941177)"></rect><rect width="8.947368421052632" height="8.947368421052632" x="368.859649122807" y="466.1145510835914" fill="hsla(144, 33%, 55%, 1.00)" stroke="none" transform="rotate(45, 373.3333333333333, 470.5882352941177)"></rect><rect width="8.947368421052632" height="8.947368421052632" x="422.1929824561403" y="466.1145510835914" fill="hsla(144, 33%, 55%, 1.00)" stroke="none" transform="rotate(45, 426.66666666666663, 470.5882352941177)"></rect><rect width="8.947368421052632" height="8.947368421052632" x="475.52631578947364" y="466.1145510835914" fill="hsla(144, 33%, 55%, 1.00)" stroke="none" transform="rotate(45, 479.99999999999994, 470.5882352941177)"></rect><rect width="8.947368421052632" height="8.947368421052632" x="528.8596491228069" y="466.1145510835914" transform="rotate(45, 533.3333333333333, 470.5882352941177)"></rect><rect width="8.947368421052632" height="8.947368421052632" x="582.1929824561403" y="466.1145510835914" fill="hsla(144, 33%, 55%, 1.00)" stroke="none" transform="rotate(45, 586.6666666666666, 470.5882352941177)"></rect><rect width="8.947368421052632" height="8.947368421052632" x="635.5263157894736" y="466.1145510835914" fill="hsla(144, 33%, 55%, 1.00)" stroke="none" transform="rotate(45, 640, 470.5882352941177)"></rect><rect width="8.947368421052632" height="8.947368421052632" x="688.859649122807" y="466.1145510835914" fill="hsla(144, 33%, 55%, 1.00)" stroke="none" transform="rotate(45, 693.3333333333334, 470.5882352941177)"></rect><rect width="8.947368421052632" height="8.947368421052632" x="742.1929824561404" y="466.1145510835914" transform="rotate(45, 746.6666666666667, 470.5882352941177)"></rect><rect width="8.947368421052632" height="8.947368421052632" x="795.5263157894738" y="466.1145510835914" transform="rotate(45, 800.0000000000001, 470.5882352941177)"></rect><rect width="8.947368421052632" height="8.947368421052632" x="-4.473684210526316" y="513.1733746130031" transform="rotate(45, 0, 517.6470588235295)"></rect><rect width="8.947368421052632" height="8.947368421052632" x="48.85964912280702" y="513.1733746130031" transform="rotate(45, 53.333333333333336, 517.6470588235295)"></rect><rect width="8.947368421052632" height="8.947368421052632" x="102.19298245614036" y="513.1733746130031" fill="hsla(144, 33%, 55%, 1.00)" stroke="none" transform="rotate(45, 106.66666666666667, 517.6470588235295)"></rect><rect width="8.947368421052632" height="8.947368421052632" x="155.52631578947367" y="513.1733746130031" transform="rotate(45, 160, 517.6470588235295)"></rect><rect width="8.947368421052632" height="8.947368421052632" x="208.859649122807" y="513.1733746130031" transform="rotate(45, 213.33333333333334, 517.6470588235295)"></rect><rect width="8.947368421052632" height="8.947368421052632" x="262.1929824561404" y="513.1733746130031" fill="hsla(144, 33%, 55%, 1.00)" stroke="none" transform="rotate(45, 266.6666666666667, 517.6470588235295)"></rect><rect width="8.947368421052632" height="8.947368421052632" x="315.5263157894737" y="513.1733746130031" transform="rotate(45, 320, 517.6470588235295)"></rect><rect width="8.947368421052632" height="8.947368421052632" x="368.859649122807" y="513.1733746130031" transform="rotate(45, 373.3333333333333, 517.6470588235295)"></rect><rect width="8.947368421052632" height="8.947368421052632" x="422.1929824561403" y="513.1733746130031" transform="rotate(45, 426.66666666666663, 517.6470588235295)"></rect><rect width="8.947368421052632" height="8.947368421052632" x="475.52631578947364" y="513.1733746130031" transform="rotate(45, 479.99999999999994, 517.6470588235295)"></rect><rect width="8.947368421052632" height="8.947368421052632" x="528.8596491228069" y="513.1733746130031" fill="hsla(144, 33%, 55%, 1.00)" stroke="none" transform="rotate(45, 533.3333333333333, 517.6470588235295)"></rect><rect width="8.947368421052632" height="8.947368421052632" x="582.1929824561403" y="513.1733746130031" transform="rotate(45, 586.6666666666666, 517.6470588235295)"></rect><rect width="8.947368421052632" height="8.947368421052632" x="635.5263157894736" y="513.1733746130031" transform="rotate(45, 640, 517.6470588235295)"></rect><rect width="8.947368421052632" height="8.947368421052632" x="688.859649122807" y="513.1733746130031" fill="hsla(144, 33%, 55%, 1.00)" stroke="none" transform="rotate(45, 693.3333333333334, 517.6470588235295)"></rect><rect width="8.947368421052632" height="8.947368421052632" x="742.1929824561404" y="513.1733746130031" transform="rotate(45, 746.6666666666667, 517.6470588235295)"></rect><rect width="8.947368421052632" height="8.947368421052632" x="795.5263157894738" y="513.1733746130031" transform="rotate(45, 800.0000000000001, 517.6470588235295)"></rect><rect width="8.947368421052632" height="8.947368421052632" x="-4.473684210526316" y="560.2321981424149" transform="rotate(45, 0, 564.7058823529412)"></rect><rect width="8.947368421052632" height="8.947368421052632" x="48.85964912280702" y="560.2321981424149" fill="hsla(144, 33%, 55%, 1.00)" stroke="none" transform="rotate(45, 53.333333333333336, 564.7058823529412)"></rect><rect width="8.947368421052632" height="8.947368421052632" x="102.19298245614036" y="560.2321981424149" transform="rotate(45, 106.66666666666667, 564.7058823529412)"></rect><rect width="8.947368421052632" height="8.947368421052632" x="155.52631578947367" y="560.2321981424149" transform="rotate(45, 160, 564.7058823529412)"></rect><rect width="8.947368421052632" height="8.947368421052632" x="208.859649122807" y="560.2321981424149" transform="rotate(45, 213.33333333333334, 564.7058823529412)"></rect><rect width="8.947368421052632" height="8.947368421052632" x="262.1929824561404" y="560.2321981424149" transform="rotate(45, 266.6666666666667, 564.7058823529412)"></rect><rect width="8.947368421052632" height="8.947368421052632" x="315.5263157894737" y="560.2321981424149" transform="rotate(45, 320, 564.7058823529412)"></rect><rect width="8.947368421052632" height="8.947368421052632" x="368.859649122807" y="560.2321981424149" fill="hsla(144, 33%, 55%, 1.00)" stroke="none" transform="rotate(45, 373.3333333333333, 564.7058823529412)"></rect><rect width="8.947368421052632" height="8.947368421052632" x="422.1929824561403" y="560.2321981424149" transform="rotate(45, 426.66666666666663, 564.7058823529412)"></rect><rect width="8.947368421052632" height="8.947368421052632" x="475.52631578947364" y="560.2321981424149" fill="hsla(144, 33%, 55%, 1.00)" stroke="none" transform="rotate(45, 479.99999999999994, 564.7058823529412)"></rect><rect width="8.947368421052632" height="8.947368421052632" x="528.8596491228069" y="560.2321981424149" transform="rotate(45, 533.3333333333333, 564.7058823529412)"></rect><rect width="8.947368421052632" height="8.947368421052632" x="582.1929824561403" y="560.2321981424149" transform="rotate(45, 586.6666666666666, 564.7058823529412)"></rect><rect width="8.947368421052632" height="8.947368421052632" x="635.5263157894736" y="560.2321981424149" transform="rotate(45, 640, 564.7058823529412)"></rect><rect width="8.947368421052632" height="8.947368421052632" x="688.859649122807" y="560.2321981424149" transform="rotate(45, 693.3333333333334, 564.7058823529412)"></rect><rect width="8.947368421052632" height="8.947368421052632" x="742.1929824561404" y="560.2321981424149" transform="rotate(45, 746.6666666666667, 564.7058823529412)"></rect><rect width="8.947368421052632" height="8.947368421052632" x="795.5263157894738" y="560.2321981424149" transform="rotate(45, 800.0000000000001, 564.7058823529412)"></rect><rect width="8.947368421052632" height="8.947368421052632" x="-4.473684210526316" y="607.2910216718266" transform="rotate(45, 0, 611.7647058823529)"></rect><rect width="8.947368421052632" height="8.947368421052632" x="48.85964912280702" y="607.2910216718266" transform="rotate(45, 53.333333333333336, 611.7647058823529)"></rect><rect width="8.947368421052632" height="8.947368421052632" x="102.19298245614036" y="607.2910216718266" fill="hsla(144, 33%, 55%, 1.00)" stroke="none" transform="rotate(45, 106.66666666666667, 611.7647058823529)"></rect><rect width="8.947368421052632" height="8.947368421052632" x="155.52631578947367" y="607.2910216718266" fill="hsla(144, 33%, 55%, 1.00)" stroke="none" transform="rotate(45, 160, 611.7647058823529)"></rect><rect width="8.947368421052632" height="8.947368421052632" x="208.859649122807" y="607.2910216718266" transform="rotate(45, 213.33333333333334, 611.7647058823529)"></rect><rect width="8.947368421052632" height="8.947368421052632" x="262.1929824561404" y="607.2910216718266" transform="rotate(45, 266.6666666666667, 611.7647058823529)"></rect><rect width="8.947368421052632" height="8.947368421052632" x="315.5263157894737" y="607.2910216718266" transform="rotate(45, 320, 611.7647058823529)"></rect><rect width="8.947368421052632" height="8.947368421052632" x="368.859649122807" y="607.2910216718266" transform="rotate(45, 373.3333333333333, 611.7647058823529)"></rect><rect width="8.947368421052632" height="8.947368421052632" x="422.1929824561403" y="607.2910216718266" fill="hsla(144, 33%, 55%, 1.00)" stroke="none" transform="rotate(45, 426.66666666666663, 611.7647058823529)"></rect><rect width="8.947368421052632" height="8.947368421052632" x="475.52631578947364" y="607.2910216718266" transform="rotate(45, 479.99999999999994, 611.7647058823529)"></rect><rect width="8.947368421052632" height="8.947368421052632" x="528.8596491228069" y="607.2910216718266" transform="rotate(45, 533.3333333333333, 611.7647058823529)"></rect><rect width="8.947368421052632" height="8.947368421052632" x="582.1929824561403" y="607.2910216718266" transform="rotate(45, 586.6666666666666, 611.7647058823529)"></rect><rect width="8.947368421052632" height="8.947368421052632" x="635.5263157894736" y="607.2910216718266" transform="rotate(45, 640, 611.7647058823529)"></rect><rect width="8.947368421052632" height="8.947368421052632" x="688.859649122807" y="607.2910216718266" fill="hsla(144, 33%, 55%, 1.00)" stroke="none" transform="rotate(45, 693.3333333333334, 611.7647058823529)"></rect><rect width="8.947368421052632" height="8.947368421052632" x="742.1929824561404" y="607.2910216718266" transform="rotate(45, 746.6666666666667, 611.7647058823529)"></rect><rect width="8.947368421052632" height="8.947368421052632" x="795.5263157894738" y="607.2910216718266" transform="rotate(45, 800.0000000000001, 611.7647058823529)"></rect><rect width="8.947368421052632" height="8.947368421052632" x="-4.473684210526316" y="654.3498452012383" transform="rotate(45, 0, 658.8235294117646)"></rect><rect width="8.947368421052632" height="8.947368421052632" x="48.85964912280702" y="654.3498452012383" transform="rotate(45, 53.333333333333336, 658.8235294117646)"></rect><rect width="8.947368421052632" height="8.947368421052632" x="102.19298245614036" y="654.3498452012383" transform="rotate(45, 106.66666666666667, 658.8235294117646)"></rect><rect width="8.947368421052632" height="8.947368421052632" x="155.52631578947367" y="654.3498452012383" transform="rotate(45, 160, 658.8235294117646)"></rect><rect width="8.947368421052632" height="8.947368421052632" x="208.859649122807" y="654.3498452012383" transform="rotate(45, 213.33333333333334, 658.8235294117646)"></rect><rect width="8.947368421052632" height="8.947368421052632" x="262.1929824561404" y="654.3498452012383" transform="rotate(45, 266.6666666666667, 658.8235294117646)"></rect><rect width="8.947368421052632" height="8.947368421052632" x="315.5263157894737" y="654.3498452012383" transform="rotate(45, 320, 658.8235294117646)"></rect><rect width="8.947368421052632" height="8.947368421052632" x="368.859649122807" y="654.3498452012383" transform="rotate(45, 373.3333333333333, 658.8235294117646)"></rect><rect width="8.947368421052632" height="8.947368421052632" x="422.1929824561403" y="654.3498452012383" transform="rotate(45, 426.66666666666663, 658.8235294117646)"></rect><rect width="8.947368421052632" height="8.947368421052632" x="475.52631578947364" y="654.3498452012383" fill="hsla(144, 33%, 55%, 1.00)" stroke="none" transform="rotate(45, 479.99999999999994, 658.8235294117646)"></rect><rect width="8.947368421052632" height="8.947368421052632" x="528.8596491228069" y="654.3498452012383" transform="rotate(45, 533.3333333333333, 658.8235294117646)"></rect><rect width="8.947368421052632" height="8.947368421052632" x="582.1929824561403" y="654.3498452012383" transform="rotate(45, 586.6666666666666, 658.8235294117646)"></rect><rect width="8.947368421052632" height="8.947368421052632" x="635.5263157894736" y="654.3498452012383" transform="rotate(45, 640, 658.8235294117646)"></rect><rect width="8.947368421052632" height="8.947368421052632" x="688.859649122807" y="654.3498452012383" fill="hsla(144, 33%, 55%, 1.00)" stroke="none" transform="rotate(45, 693.3333333333334, 658.8235294117646)"></rect><rect width="8.947368421052632" height="8.947368421052632" x="742.1929824561404" y="654.3498452012383" transform="rotate(45, 746.6666666666667, 658.8235294117646)"></rect><rect width="8.947368421052632" height="8.947368421052632" x="795.5263157894738" y="654.3498452012383" transform="rotate(45, 800.0000000000001, 658.8235294117646)"></rect><rect width="8.947368421052632" height="8.947368421052632" x="-4.473684210526316" y="701.40866873065" transform="rotate(45, 0, 705.8823529411764)"></rect><rect width="8.947368421052632" height="8.947368421052632" x="48.85964912280702" y="701.40866873065" transform="rotate(45, 53.333333333333336, 705.8823529411764)"></rect><rect width="8.947368421052632" height="8.947368421052632" x="102.19298245614036" y="701.40866873065" transform="rotate(45, 106.66666666666667, 705.8823529411764)"></rect><rect width="8.947368421052632" height="8.947368421052632" x="155.52631578947367" y="701.40866873065" transform="rotate(45, 160, 705.8823529411764)"></rect><rect width="8.947368421052632" height="8.947368421052632" x="208.859649122807" y="701.40866873065" transform="rotate(45, 213.33333333333334, 705.8823529411764)"></rect><rect width="8.947368421052632" height="8.947368421052632" x="262.1929824561404" y="701.40866873065" transform="rotate(45, 266.6666666666667, 705.8823529411764)"></rect><rect width="8.947368421052632" height="8.947368421052632" x="315.5263157894737" y="701.40866873065" transform="rotate(45, 320, 705.8823529411764)"></rect><rect width="8.947368421052632" height="8.947368421052632" x="368.859649122807" y="701.40866873065" transform="rotate(45, 373.3333333333333, 705.8823529411764)"></rect><rect width="8.947368421052632" height="8.947368421052632" x="422.1929824561403" y="701.40866873065" fill="hsla(144, 33%, 55%, 1.00)" stroke="none" transform="rotate(45, 426.66666666666663, 705.8823529411764)"></rect><rect width="8.947368421052632" height="8.947368421052632" x="475.52631578947364" y="701.40866873065" transform="rotate(45, 479.99999999999994, 705.8823529411764)"></rect><rect width="8.947368421052632" height="8.947368421052632" x="528.8596491228069" y="701.40866873065" transform="rotate(45, 533.3333333333333, 705.8823529411764)"></rect><rect width="8.947368421052632" height="8.947368421052632" x="582.1929824561403" y="701.40866873065" transform="rotate(45, 586.6666666666666, 705.8823529411764)"></rect><rect width="8.947368421052632" height="8.947368421052632" x="635.5263157894736" y="701.40866873065" transform="rotate(45, 640, 705.8823529411764)"></rect><rect width="8.947368421052632" height="8.947368421052632" x="688.859649122807" y="701.40866873065" transform="rotate(45, 693.3333333333334, 705.8823529411764)"></rect><rect width="8.947368421052632" height="8.947368421052632" x="742.1929824561404" y="701.40866873065" fill="hsla(144, 33%, 55%, 1.00)" stroke="none" transform="rotate(45, 746.6666666666667, 705.8823529411764)"></rect><rect width="8.947368421052632" height="8.947368421052632" x="795.5263157894738" y="701.40866873065" transform="rotate(45, 800.0000000000001, 705.8823529411764)"></rect><rect width="8.947368421052632" height="8.947368421052632" x="-4.473684210526316" y="748.4674922600617" transform="rotate(45, 0, 752.9411764705881)"></rect><rect width="8.947368421052632" height="8.947368421052632" x="48.85964912280702" y="748.4674922600617" transform="rotate(45, 53.333333333333336, 752.9411764705881)"></rect><rect width="8.947368421052632" height="8.947368421052632" x="102.19298245614036" y="748.4674922600617" transform="rotate(45, 106.66666666666667, 752.9411764705881)"></rect><rect width="8.947368421052632" height="8.947368421052632" x="155.52631578947367" y="748.4674922600617" fill="hsla(144, 33%, 55%, 1.00)" stroke="none" transform="rotate(45, 160, 752.9411764705881)"></rect><rect width="8.947368421052632" height="8.947368421052632" x="208.859649122807" y="748.4674922600617" transform="rotate(45, 213.33333333333334, 752.9411764705881)"></rect><rect width="8.947368421052632" height="8.947368421052632" x="262.1929824561404" y="748.4674922600617" transform="rotate(45, 266.6666666666667, 752.9411764705881)"></rect><rect width="8.947368421052632" height="8.947368421052632" x="315.5263157894737" y="748.4674922600617" transform="rotate(45, 320, 752.9411764705881)"></rect><rect width="8.947368421052632" height="8.947368421052632" x="368.859649122807" y="748.4674922600617" transform="rotate(45, 373.3333333333333, 752.9411764705881)"></rect><rect width="8.947368421052632" height="8.947368421052632" x="422.1929824561403" y="748.4674922600617" transform="rotate(45, 426.66666666666663, 752.9411764705881)"></rect><rect width="8.947368421052632" height="8.947368421052632" x="475.52631578947364" y="748.4674922600617" transform="rotate(45, 479.99999999999994, 752.9411764705881)"></rect><rect width="8.947368421052632" height="8.947368421052632" x="528.8596491228069" y="748.4674922600617" transform="rotate(45, 533.3333333333333, 752.9411764705881)"></rect><rect width="8.947368421052632" height="8.947368421052632" x="582.1929824561403" y="748.4674922600617" fill="hsla(144, 33%, 55%, 1.00)" stroke="none" transform="rotate(45, 586.6666666666666, 752.9411764705881)"></rect><rect width="8.947368421052632" height="8.947368421052632" x="635.5263157894736" y="748.4674922600617" fill="hsla(144, 33%, 55%, 1.00)" stroke="none" transform="rotate(45, 640, 752.9411764705881)"></rect><rect width="8.947368421052632" height="8.947368421052632" x="688.859649122807" y="748.4674922600617" transform="rotate(45, 693.3333333333334, 752.9411764705881)"></rect><rect width="8.947368421052632" height="8.947368421052632" x="742.1929824561404" y="748.4674922600617" fill="hsla(144, 33%, 55%, 1.00)" stroke="none" transform="rotate(45, 746.6666666666667, 752.9411764705881)"></rect><rect width="8.947368421052632" height="8.947368421052632" x="795.5263157894738" y="748.4674922600617" transform="rotate(45, 800.0000000000001, 752.9411764705881)"></rect><rect width="8.947368421052632" height="8.947368421052632" x="-4.473684210526316" y="795.5263157894734" transform="rotate(45, 0, 799.9999999999998)"></rect><rect width="8.947368421052632" height="8.947368421052632" x="48.85964912280702" y="795.5263157894734" transform="rotate(45, 53.333333333333336, 799.9999999999998)"></rect><rect width="8.947368421052632" height="8.947368421052632" x="102.19298245614036" y="795.5263157894734" transform="rotate(45, 106.66666666666667, 799.9999999999998)"></rect><rect width="8.947368421052632" height="8.947368421052632" x="155.52631578947367" y="795.5263157894734" transform="rotate(45, 160, 799.9999999999998)"></rect><rect width="8.947368421052632" height="8.947368421052632" x="208.859649122807" y="795.5263157894734" transform="rotate(45, 213.33333333333334, 799.9999999999998)"></rect><rect width="8.947368421052632" height="8.947368421052632" x="262.1929824561404" y="795.5263157894734" transform="rotate(45, 266.6666666666667, 799.9999999999998)"></rect><rect width="8.947368421052632" height="8.947368421052632" x="315.5263157894737" y="795.5263157894734" transform="rotate(45, 320, 799.9999999999998)"></rect><rect width="8.947368421052632" height="8.947368421052632" x="368.859649122807" y="795.5263157894734" transform="rotate(45, 373.3333333333333, 799.9999999999998)"></rect><rect width="8.947368421052632" height="8.947368421052632" x="422.1929824561403" y="795.5263157894734" transform="rotate(45, 426.66666666666663, 799.9999999999998)"></rect><rect width="8.947368421052632" height="8.947368421052632" x="475.52631578947364" y="795.5263157894734" transform="rotate(45, 479.99999999999994, 799.9999999999998)"></rect><rect width="8.947368421052632" height="8.947368421052632" x="528.8596491228069" y="795.5263157894734" transform="rotate(45, 533.3333333333333, 799.9999999999998)"></rect><rect width="8.947368421052632" height="8.947368421052632" x="582.1929824561403" y="795.5263157894734" transform="rotate(45, 586.6666666666666, 799.9999999999998)"></rect><rect width="8.947368421052632" height="8.947368421052632" x="635.5263157894736" y="795.5263157894734" transform="rotate(45, 640, 799.9999999999998)"></rect><rect width="8.947368421052632" height="8.947368421052632" x="688.859649122807" y="795.5263157894734" transform="rotate(45, 693.3333333333334, 799.9999999999998)"></rect><rect width="8.947368421052632" height="8.947368421052632" x="742.1929824561404" y="795.5263157894734" transform="rotate(45, 746.6666666666667, 799.9999999999998)"></rect><rect width="8.947368421052632" height="8.947368421052632" x="795.5263157894738" y="795.5263157894734" transform="rotate(45, 800.0000000000001, 799.9999999999998)"></rect></g></svg>